<?xml version="1.0" encoding="utf-8"?>

<svg version="1.1" id="Icons" xmlns="http://www.w3.org/2000/svg" xmlns:xlink="http://www.w3.org/1999/xlink" x="0px" y="0px"
	 viewBox="0 0 32 32" style="enable-background:new 0 0 32 32;" xml:space="preserve">
<style type="text/css">
	.st0{fill:none;stroke:#FFFFFF;stroke-width:2;stroke-linecap:round;stroke-linejoin:round;stroke-miterlimit:10;}
</style>
<path class="st0" d="M9.3,27.4L9.3,27.4c0.7,0.7,1.9,0.7,2.7,0l0,0c0.7-0.7,1.9-0.7,2.7,0l0,0c0.7,0.7,1.9,0.7,2.7,0l0,0
	c0.7-0.7,1.9-0.7,2.7,0l0,0c0.7,0.7,1.9,0.7,2.7,0l0,0c0.7-0.7,1.9-0.7,2.7,0l0.7,0.6V13c0-5.5-4.5-10-10-10h0C10.5,3,6,7.5,6,13
	v15.1l0.7-0.6C7.4,26.7,8.6,26.7,9.3,27.4z"/>
<line class="st0" x1="13" y1="13" x2="13" y2="16"/>
<line class="st0" x1="19" y1="13" x2="19" y2="16"/>
<line class="st0" x1="11" y1="19" x2="21" y2="19"/>
</svg>
