<?xml version="1.0" encoding="utf-8"?>
<svg viewBox="0 0 32 32" xmlns="http://www.w3.org/2000/svg">
  <defs>
    <style>.cls-1{fill:none;}</style>
  </defs>
  <path d="M 29.878 10.99 L 24.878 10.99 L 24.878 20.99 L 26.878 20.99 L 26.878 17.99 L 29.878 17.99 C 30.982 17.989 31.877 17.094 31.878 15.99 L 31.878 12.99 C 31.877 11.886 30.982 10.991 29.878 10.99 Z M 26.878 15.99 L 26.878 12.99 L 29.878 12.99 L 29.879 15.99 L 26.878 15.99 Z"/>
  <polygon points="9.359 12.98 11.359 12.98 11.359 20.98 13.359 20.98 13.359 12.98 15.359 12.98 15.359 10.98 9.359 10.98 9.359 12.98"/>
  <polygon points="23.237 10.947 17.237 10.947 17.237 12.947 19.237 12.947 19.237 20.947 21.237 20.947 21.237 12.947 23.237 12.947 23.237 10.947"/>
  <polygon points="5.717 10.924 5.717 14.924 2.717 14.924 2.717 10.924 0.717 10.924 0.717 20.924 2.717 20.924 2.717 16.924 5.717 16.924 5.717 20.924 7.717 20.924 7.717 10.924 5.717 10.924"/>
  <rect id="_Transparent_Rectangle_" data-name="&lt;Transparent Rectangle&gt;" class="cls-1" width="32" height="32"/>
  <line style="fill: rgb(216, 216, 216); stroke: rgb(0, 0, 0);" x1="0.029" y1="3.492" x2="32.054" y2="3.503"/>
  <line style="fill: rgb(216, 216, 216); stroke: rgb(0, 0, 0);" x1="-0.014" y1="28.525" x2="32.011" y2="28.536"/>
  <line style="fill: rgb(216, 216, 216); stroke: rgb(0, 0, 0);" x1="0.034" y1="4.236" x2="32.059" y2="4.247"/>
  <line style="fill: rgb(216, 216, 216); stroke: rgb(0, 0, 0);" x1="0.018" y1="27.572" x2="32.043" y2="27.583"/>
</svg>